<?xml version="1.0" standalone="no"?>
<!DOCTYPE svg PUBLIC "-//W3C//DTD SVG 20010904//EN"
 "http://www.w3.org/TR/2001/REC-SVG-20010904/DTD/svg10.dtd">
<svg version="1.0" xmlns="http://www.w3.org/2000/svg"
 width="630.000000pt" height="630.000000pt" viewBox="0 0 630.000000 630.000000"
 preserveAspectRatio="xMidYMid meet">
<metadata>
Created by potrace 1.14, written by Peter Selinger 2001-2017
</metadata>
<g transform="translate(0.000000,630.000000) scale(0.100000,-0.100000)"
fill="#000000" stroke="none">
<path d="M3132 6163 c-6 -2 -10 -9 -6 -14 3 -5 0 -9 -7 -9 -6 0 -50 -40 -98
-89 -107 -110 -153 -161 -146 -161 3 0 -5 -12 -19 -27 -14 -15 -23 -30 -20
-35 3 -4 1 -8 -5 -8 -6 0 -18 -16 -27 -35 -9 -19 -20 -35 -25 -35 -5 0 -9 -6
-9 -14 0 -8 -7 -21 -15 -30 -9 -8 -16 -18 -15 -21 1 -26 -2 -35 -10 -30 -6 4
-10 -5 -10 -19 0 -14 -5 -26 -10 -26 -6 0 -9 -3 -8 -7 1 -5 -9 -39 -21 -78
-13 -38 -25 -81 -27 -95 -9 -57 -13 -75 -14 -75 -1 0 -3 -60 -4 -132 -1 -81 2
-133 8 -133 5 0 7 -3 3 -6 -3 -3 -2 -17 3 -30 7 -16 6 -24 -1 -24 -8 0 -8 -4
-2 -12 11 -14 35 -96 31 -101 -2 -2 2 -10 8 -18 6 -8 17 -31 23 -51 7 -21 17
-38 22 -38 6 0 8 -4 5 -8 -4 -7 20 -47 72 -122 48 -70 156 -164 151 -132 -1 4
0 9 1 12 2 7 12 144 14 198 0 23 3 42 6 42 3 0 6 21 8 48 1 26 5 58 7 72 3 14
8 48 11 75 4 28 9 51 13 53 4 1 6 20 4 42 -1 22 2 40 6 40 5 0 7 14 5 30 -2
17 0 30 5 30 4 0 8 10 7 23 -1 12 1 36 6 52 4 17 10 46 13 65 3 19 10 58 15
85 19 97 33 192 33 223 0 6 3 12 6 12 3 0 6 25 6 56 0 31 3 58 7 60 4 2 5 17
4 32 -2 15 0 35 5 44 6 10 5 19 -1 23 -12 7 -4 25 12 25 5 0 8 -7 4 -15 -3 -8
-2 -15 3 -15 5 0 7 -11 6 -25 -2 -14 0 -27 5 -30 4 -2 5 -16 2 -30 -2 -14 0
-25 4 -25 5 0 10 -17 10 -38 5 -138 10 -192 16 -192 4 0 4 -10 -1 -23 -5 -14
-5 -30 0 -40 7 -12 6 -17 -3 -17 -8 0 -9 -3 -3 -8 15 -11 17 -64 2 -55 -9 5
-9 3 -1 -8 13 -16 14 -277 1 -296 -4 -6 -3 -14 2 -17 6 -4 6 -18 1 -36 -6 -20
-5 -30 2 -30 7 0 6 -5 -2 -15 -6 -8 -9 -19 -5 -25 3 -5 0 -10 -7 -10 -10 0
-10 -2 1 -9 8 -5 9 -11 3 -15 -6 -4 -9 -15 -7 -26 2 -11 0 -20 -5 -20 -5 0 -9
-8 -8 -17 0 -19 -4 -37 -21 -98 -6 -21 -8 -42 -5 -47 3 -4 1 -8 -4 -8 -5 0 -9
-6 -9 -12 0 -7 -4 -26 -8 -43 -3 -16 -7 -36 -7 -42 -1 -7 -4 -13 -8 -13 -3 0
-6 -8 -6 -17 -1 -22 -12 -90 -20 -123 -4 -14 -7 -331 -9 -705 -1 -374 -3 -683
-4 -686 0 -4 -118 -6 -261 -5 -167 1 -260 -3 -260 -9 0 -7 -3 -7 -8 0 -4 6
-103 10 -260 10 -161 0 -252 -4 -252 -10 0 -7 -3 -7 -8 0 -4 6 -47 10 -97 10
-49 0 -93 -4 -97 -10 -5 -7 -8 -7 -8 0 0 6 -44 10 -112 10 -64 0 -116 -4 -120
-10 -5 -7 -8 -7 -8 0 0 7 -133 9 -385 7 -212 -1 -385 1 -385 6 0 14 -73 48
-100 47 -85 -3 -137 -95 -99 -172 37 -75 140 -91 189 -31 15 19 37 19 499 19
266 -1 486 -3 488 -5 2 -2 4 -74 5 -161 l2 -157 34 -34 c19 -19 38 -32 42 -29
5 3 11 1 14 -4 10 -15 89 -6 123 14 18 10 30 22 28 26 -10 16 38 20 202 19
l171 -1 47 41 c25 22 43 40 38 40 -4 0 6 9 22 20 17 11 27 20 24 20 -4 0 9 17
30 38 20 21 39 36 44 34 4 -2 7 1 7 7 0 5 27 37 61 70 67 67 103 79 118 39 5
-13 5 -28 0 -34 -5 -6 -4 -15 3 -22 9 -9 9 -12 0 -12 -9 0 -10 -5 -3 -18 5
-10 6 -24 1 -33 -5 -8 -5 -21 0 -29 4 -7 4 -24 -1 -37 -9 -25 -15 -31 -124
-128 -37 -33 -84 -75 -104 -93 -20 -18 -43 -39 -51 -46 -23 -21 -90 -57 -90
-48 0 4 -36 7 -80 7 -44 1 -80 -3 -80 -8 0 -6 -5 -5 -12 0 -15 11 -78 11 -96
-1 -7 -4 -12 -3 -12 2 0 5 -7 9 -15 9 -8 0 -15 -5 -15 -11 0 -7 -3 -7 -8 -1
-9 13 -142 14 -135 1 4 -5 1 -6 -5 -2 -19 11 -92 13 -92 1 0 -7 -3 -7 -8 0 -8
12 -71 13 -89 2 -6 -4 -13 -2 -15 4 -2 7 -12 7 -31 0 -15 -6 -27 -7 -27 -3 0
4 -18 6 -40 4 -30 -3 -41 0 -46 12 -3 9 -10 16 -14 16 -10 0 -81 70 -71 70 3
0 -1 5 -9 10 -8 5 -10 10 -5 11 6 0 17 2 25 4 8 1 33 6 55 9 21 4 43 12 47 19
4 6 8 8 8 2 0 -5 7 1 15 15 22 39 18 88 -10 122 -14 16 -25 26 -25 22 0 -5 -5
-3 -12 4 -17 17 -82 15 -123 -5 -19 -9 -35 -20 -35 -24 0 -21 -36 -16 -68 11
-20 16 -44 30 -54 30 -9 0 -19 4 -23 10 -9 14 -136 6 -166 -11 -15 -8 -45 -30
-67 -49 l-41 -34 -98 3 c-92 2 -100 4 -128 31 -24 22 -38 27 -70 26 -60 -4
-68 -8 -96 -46 -48 -63 -25 -151 46 -177 38 -13 73 -15 80 -2 4 5 15 9 25 9
10 0 22 9 25 20 8 25 32 37 65 33 25 -4 62 -5 77 -2 33 6 50 -3 49 -24 -1 -12
1 -26 5 -32 4 -5 7 -12 7 -15 -2 -11 15 -54 26 -68 26 -32 71 -72 83 -72 7 0
13 -5 13 -11 0 -5 4 -8 8 -5 5 3 19 -1 33 -8 52 -27 167 2 220 55 25 25 29 25
75 -17 74 -67 52 -63 384 -64 l305 -1 -80 -74 c-44 -40 -84 -71 -90 -68 -5 4
-7 2 -2 -2 8 -10 -43 -46 -55 -39 -12 8 -394 8 -406 0 -6 -3 -13 -3 -16 2 -5
8 -104 7 -113 -1 -2 -3 -18 -1 -34 3 -18 5 -41 5 -54 0 -14 -5 -26 -6 -29 -2
-2 4 -24 6 -48 5 -23 -2 -50 -3 -58 -3 -8 0 -42 1 -76 1 l-60 1 -27 44 c-15
24 -33 44 -42 44 -8 0 -15 5 -15 10 0 6 -9 10 -19 10 -11 0 -22 4 -26 9 -9 16
-95 -15 -127 -45 -32 -31 -50 -85 -46 -139 3 -47 57 -111 103 -124 41 -11 104
-4 122 15 8 8 19 14 25 14 6 0 16 7 22 15 10 14 71 16 508 15 l497 0 50 49
c28 28 51 49 51 47 0 -2 36 32 81 75 44 44 86 79 92 79 5 0 8 3 4 6 -7 8 11
27 39 42 12 6 54 12 93 13 55 1 75 6 84 19 7 10 16 19 21 21 9 4 75 63 182
165 30 29 54 51 54 50 0 -1 31 27 68 62 l68 63 -1 125 c0 75 4 125 10 127 5 2
37 3 70 3 l60 -1 3 -146 3 -146 -66 -69 c-36 -38 -65 -72 -65 -77 0 -4 -4 -5
-10 -2 -6 3 -10 2 -10 -3 0 -5 -83 -93 -184 -196 -100 -102 -181 -188 -178
-191 3 -3 0 -5 -5 -5 -6 0 -28 -16 -47 -35 -20 -19 -35 -35 -32 -35 2 0 -15
-19 -38 -43 -22 -23 -44 -41 -48 -39 -5 2 -8 0 -8 -5 0 -9 -94 -110 -124 -133
-16 -13 -91 -15 -497 -17 -464 -1 -478 -1 -484 18 -4 11 -11 17 -16 14 -5 -4
-9 -2 -9 4 0 6 -18 19 -40 30 -22 10 -40 15 -40 9 0 -7 -5 -6 -14 1 -26 22
-156 -21 -156 -51 0 -5 -4 -6 -10 -3 -5 3 -10 -1 -10 -9 0 -9 -4 -16 -10 -16
-5 0 -10 -9 -10 -19 0 -11 -4 -22 -9 -25 -8 -5 -8 -84 1 -116 21 -80 146 -147
218 -117 14 5 31 11 37 13 16 3 69 44 57 44 -4 0 0 6 10 13 9 7 18 22 19 35 0
12 5 22 9 22 4 0 5 6 2 13 -4 11 54 13 323 11 180 -1 335 -2 344 -3 15 -1 17
-28 17 -263 1 -303 0 -308 -68 -303 -41 3 -90 -13 -90 -28 0 -5 -4 -6 -9 -2
-14 8 -54 -54 -55 -86 -1 -16 -5 -29 -10 -29 -5 0 -3 -7 4 -15 7 -8 10 -15 7
-15 -3 0 -1 -14 5 -30 11 -33 75 -76 118 -81 33 -3 90 10 90 22 0 5 4 8 9 6 5
-1 10 3 12 8 1 6 8 15 14 20 18 15 33 65 31 105 -2 28 5 42 36 72 21 21 38 42
38 47 0 5 6 11 13 14 9 3 11 24 7 76 -3 40 -4 74 -1 76 2 3 3 94 3 205 l0 200
26 1 c15 1 54 1 86 0 60 -2 120 14 111 29 -3 5 4 11 15 15 11 3 20 14 20 22 0
9 3 13 6 10 4 -4 19 9 34 28 15 19 30 32 34 28 3 -3 6 -1 6 5 0 6 93 104 208
219 114 115 219 223 235 242 15 18 27 30 27 27 0 -4 98 99 108 114 14 21 19
-78 13 -238 -1 -13 -5 -20 -11 -17 -5 3 -10 2 -10 -4 0 -5 -43 -53 -95 -106
-52 -53 -95 -101 -95 -106 0 -6 -4 -7 -10 -4 -5 3 -10 2 -10 -2 0 -15 -278
-292 -285 -285 -4 4 -5 2 -3 -3 2 -6 -32 -46 -75 -88 -42 -43 -77 -83 -77 -88
0 -6 -4 -7 -10 -4 -5 3 -10 2 -10 -2 0 -5 -14 -24 -32 -43 l-32 -35 -1 -308
-1 -309 -32 -13 c-39 -17 -72 -69 -72 -113 0 -40 36 -98 71 -112 37 -16 91
-18 107 -6 68 56 82 89 65 152 -10 36 -14 125 -14 326 l-1 278 53 56 c30 31
109 112 175 180 67 68 120 124 118 124 -2 0 23 24 55 53 33 28 60 55 60 59 1
5 170 178 175 178 0 0 1 -316 2 -703 l1 -702 -34 -23 c-18 -12 -33 -26 -33
-30 0 -5 -8 -17 -17 -28 -20 -22 -23 -31 -28 -82 -4 -47 12 -100 41 -129 13
-13 24 -28 24 -33 0 -9 14 -14 33 -11 4 0 7 -3 7 -9 0 -14 75 -31 107 -25 15
3 34 7 41 9 29 6 90 63 107 101 38 84 19 159 -56 227 l-41 38 1 696 c0 383 1
698 3 699 2 2 109 -104 239 -236 129 -132 233 -241 231 -244 -3 -3 -1 -5 5 -5
14 0 102 -88 95 -95 -3 -3 3 -5 13 -5 10 0 15 -3 12 -6 -4 -4 3 -15 14 -25 12
-10 19 -24 16 -31 -2 -7 0 -21 4 -30 5 -9 5 -19 1 -22 -5 -3 -5 -30 -2 -61 3
-31 3 -58 -1 -61 -4 -2 -3 -20 1 -39 4 -19 5 -35 1 -35 -5 0 -6 -60 -1 -85 1
-5 1 -14 0 -20 -4 -24 -2 -94 4 -104 4 -6 4 -11 -1 -11 -4 0 -7 -27 -6 -60 1
-33 -2 -60 -6 -60 -5 0 -7 -23 -5 -51 2 -41 8 -56 32 -79 17 -16 28 -30 26
-32 -10 -11 98 -8 118 3 22 11 74 61 70 67 -1 1 -2 3 -1 5 6 17 4 77 -3 77 -5
0 -6 5 -3 11 7 11 -51 72 -63 65 -25 -15 -30 33 -31 319 0 236 -4 302 -15 319
-7 12 -79 87 -158 168 -80 81 -143 150 -140 153 3 3 -2 5 -12 5 -9 0 -14 5
-11 10 3 6 2 10 -4 10 -5 0 -22 12 -36 28 -15 15 -107 110 -206 211 l-179 184
0 126 c1 101 3 123 13 110 7 -8 20 -18 30 -22 9 -3 17 -14 17 -23 0 -10 2 -15
5 -12 7 7 135 -120 135 -133 0 -5 4 -9 9 -9 9 0 190 -179 352 -348 38 -39 71
-72 73 -72 2 0 27 -24 57 -53 l54 -54 92 1 c80 1 93 -1 97 -17 2 -10 0 -14 -6
-11 -7 4 -7 0 0 -12 5 -11 7 -28 5 -39 -5 -22 -5 -23 1 -78 2 -22 -1 -37 -8
-37 -7 0 -7 -3 -1 -8 14 -10 14 -72 1 -72 -8 0 -8 -3 -1 -8 6 -4 11 -20 11
-37 0 -16 -5 -33 -11 -37 -7 -5 -7 -8 1 -8 12 0 12 -49 0 -68 -4 -7 -3 -12 3
-12 7 0 7 -8 1 -24 -5 -13 -6 -26 -3 -29 3 -4 7 -19 8 -36 2 -20 18 -46 48
-77 42 -43 45 -50 43 -93 -4 -56 25 -116 67 -137 35 -18 107 -27 107 -13 0 6
5 7 10 4 14 -9 68 31 84 63 52 101 -20 212 -137 212 -62 0 -81 23 -82 103 -1
34 3 68 9 76 8 11 8 13 0 8 -13 -7 -12 72 1 93 5 7 4 11 -1 7 -7 -4 -10 142
-5 269 1 20 5 20 350 20 l349 0 7 -33 c6 -33 81 -120 93 -108 3 3 11 0 18 -5
23 -20 100 -14 143 11 23 12 41 25 41 28 0 4 11 18 23 31 14 15 23 37 23 53
-1 15 2 27 5 27 6 0 5 60 -1 68 -3 2 -7 18 -9 32 -2 13 -83 90 -96 90 -5 0
-22 7 -37 14 -16 8 -28 11 -28 7 0 -4 -10 -7 -22 -6 -13 1 -27 0 -33 -4 -5 -3
-16 -6 -23 -7 -18 -3 -82 -53 -82 -64 0 -5 -54 -8 -120 -7 -74 1 -120 -2 -120
-8 0 -7 -3 -7 -8 0 -4 6 -62 10 -137 10 -75 0 -133 -4 -137 -10 -5 -7 -8 -7
-8 0 0 6 -80 10 -222 9 l-223 -1 -117 119 c-64 66 -118 123 -120 127 -2 3 -18
18 -36 34 -19 15 -31 27 -28 27 3 0 -73 80 -169 177 -96 97 -175 181 -175 186
0 6 -3 8 -6 5 -3 -3 -26 17 -52 45 -26 28 -59 62 -73 76 -14 14 -30 35 -36 46
-7 15 -11 265 -4 296 0 3 31 5 68 5 l67 -1 1 -133 2 -134 34 -29 c19 -16 38
-29 42 -29 5 0 5 -4 2 -10 -3 -5 -2 -10 3 -10 6 0 41 -30 80 -67 126 -123 232
-218 245 -219 7 -1 33 -2 58 -3 42 -1 52 -6 101 -53 30 -29 78 -74 105 -100
28 -26 48 -49 45 -52 -3 -3 -1 -6 4 -6 5 0 34 -23 64 -50 l55 -51 510 1 c281
1 520 1 532 0 12 0 34 -11 49 -25 14 -13 30 -22 35 -19 5 3 9 0 9 -6 0 -6 5
-8 10 -5 6 3 10 2 10 -3 0 -5 17 -7 38 -6 59 5 76 10 80 22 2 7 9 12 16 12 19
0 56 82 56 123 0 135 -175 205 -261 105 -17 -19 -20 -26 -18 -44 1 -13 -36
-32 -47 -23 -6 5 -13 6 -16 3 -10 -9 -101 -11 -125 -3 -12 5 -24 5 -27 1 -5
-8 -80 -6 -102 2 -7 3 -15 2 -18 -2 -5 -9 -73 -9 -82 0 -3 3 -19 2 -35 -2 -17
-5 -40 -5 -54 0 -12 5 -25 7 -27 5 -9 -9 -78 -12 -78 -3 0 5 -4 6 -10 3 -16
-10 -80 -12 -80 -3 0 5 -5 6 -11 3 -16 -10 -69 -12 -75 -4 -3 5 -14 5 -26 0
-12 -4 -37 -5 -55 -1 -18 5 -33 5 -33 1 0 -3 -18 -6 -40 -6 -22 0 -40 3 -40 7
0 3 -8 4 -18 1 -10 -2 -29 6 -44 20 -14 13 -33 27 -42 30 -9 4 -16 13 -16 22
0 8 -4 15 -8 15 -12 0 -96 79 -90 85 3 3 135 6 294 6 l288 0 32 24 c18 14 40
32 49 41 15 15 19 15 51 -2 19 -10 34 -23 34 -28 0 -5 3 -7 6 -3 4 3 19 0 34
-8 20 -10 30 -11 39 -2 8 8 11 8 11 0 0 -7 10 -10 23 -7 12 2 35 7 52 10 16 3
35 10 42 16 7 6 13 8 13 5 0 -3 10 4 23 16 25 24 76 89 76 97 0 3 4 18 10 33
6 16 11 37 11 48 0 21 -8 20 149 22 75 2 105 -1 108 -10 3 -7 9 -10 14 -7 5 3
9 0 9 -6 0 -19 62 -49 97 -45 65 6 105 49 108 117 2 30 -5 44 -34 75 -20 21
-45 39 -55 41 -35 6 -81 -8 -109 -34 -28 -25 -30 -26 -179 -25 -142 2 -153 3
-173 24 -38 39 -66 58 -76 52 -5 -4 -12 1 -15 9 -5 13 -21 15 -86 12 -44 -2
-83 -7 -86 -12 -4 -5 -13 -10 -21 -12 -42 -9 -133 -144 -116 -172 3 -5 1 -11
-4 -14 -5 -4 -8 -21 -7 -38 1 -18 -5 -40 -13 -51 -17 -20 -91 -60 -91 -48 0 6
-49 6 -75 1 -5 -1 -12 -1 -15 0 -16 6 -130 4 -130 -3 0 -4 -5 -5 -12 -1 -17
11 -78 10 -78 -1 0 -7 -3 -7 -8 0 -9 13 -142 14 -135 1 4 -5 1 -6 -6 -2 -18
12 -240 13 -234 2 4 -5 1 -6 -4 -3 -6 4 -27 9 -47 11 -20 3 -49 17 -64 31 -15
14 -52 49 -82 78 -31 28 -74 69 -97 89 -23 20 -39 39 -35 42 3 3 0 6 -7 6 -6
0 -22 12 -34 26 -20 22 -22 36 -20 117 0 51 2 99 2 109 1 11 9 15 27 13 19 -2
70 -46 175 -153 82 -83 149 -148 149 -146 0 3 7 -1 15 -10 12 -12 49 -15 191
-16 l176 -1 40 -33 c33 -28 46 -33 81 -31 55 3 89 14 105 34 8 9 10 10 6 2 -5
-10 -3 -12 5 -7 7 5 10 10 8 13 -3 2 0 15 7 28 7 14 13 79 14 171 1 81 4 149
5 151 2 1 211 3 465 4 l462 0 36 -27 c70 -54 163 -29 191 51 13 39 8 72 -20
112 -41 60 -114 65 -172 12 -17 -15 -36 -17 -123 -16 -56 1 -102 0 -102 -3 0
-3 -30 -3 -67 0 -38 3 -89 3 -115 0 -27 -3 -48 -3 -48 0 0 10 -265 5 -272 -5
-5 -7 -8 -7 -8 0 0 7 -256 10 -751 9 -412 0 -752 3 -755 7 -2 4 -5 304 -6 666
-1 472 2 665 10 679 6 10 12 15 12 11 0 -4 21 13 46 38 25 25 50 45 56 45 5 0
6 5 3 10 -3 6 -3 10 2 10 4 0 34 25 65 55 31 30 54 55 51 55 -4 0 19 32 60 80
6 8 10 15 7 16 -3 1 2 10 12 20 13 16 63 117 69 142 2 11 10 34 20 62 17 48
32 153 33 225 0 28 5 53 11 57 6 5 7 8 0 8 -5 0 -11 17 -11 38 -3 81 -9 132
-16 132 -5 0 -8 11 -8 24 0 13 -7 43 -16 67 -9 24 -17 51 -19 59 -2 8 -4 17
-5 20 -1 3 -2 8 -1 13 0 4 -4 7 -11 7 -6 0 -9 3 -5 6 3 3 -5 24 -19 45 -13 21
-24 43 -24 47 0 5 -11 26 -25 46 -13 20 -21 36 -17 36 4 0 2 4 -3 8 -6 4 -31
36 -57 72 -25 36 -60 81 -78 100 -66 73 -190 198 -190 192 0 -3 -5 -1 -12 6
-13 13 -16 13 -36 5z m-626 -3246 c27 10 13 -8 -73 -92 -60 -57 -96 -85 -113
-86 -90 -4 -169 -3 -197 2 -18 4 -35 4 -38 1 -8 -8 -56 -9 -61 0 -3 4 -15 3
-27 -1 -43 -17 -53 0 -52 91 l0 83 258 1 c141 0 260 4 264 7 4 4 11 3 16 -2 5
-5 16 -7 23 -4z m1849 -85 c1 -46 -4 -86 -9 -90 -15 -9 -86 -8 -86 1 0 5 -5 5
-10 2 -17 -11 -120 -12 -120 -2 0 6 -5 6 -12 0 -11 -8 -82 -10 -98 -3 -3 1 -9
1 -15 0 -52 -11 -55 -9 -144 78 -50 49 -91 91 -91 94 0 3 132 5 293 4 l292 -1
0 -83z m-3090 -196 c38 15 105 -54 105 -109 0 -51 -33 -107 -67 -114 -53 -11
-69 -10 -98 4 -35 17 -65 64 -65 103 0 33 30 88 51 95 10 4 19 11 19 16 0 6 4
8 9 4 5 -3 13 0 17 7 6 9 9 9 11 1 3 -7 10 -10 18 -7z m3703 -4 c25 -8 86 -62
78 -70 -3 -2 -1 -13 4 -23 6 -11 6 -20 1 -24 -6 -3 -8 -14 -6 -25 4 -21 -59
-85 -75 -75 -5 3 -11 1 -14 -4 -9 -15 -76 -1 -98 21 -28 28 -48 81 -41 109 10
36 29 69 36 62 4 -3 7 -1 7 6 0 24 60 36 108 23z m-4028 -537 c13 -16 22 -67
10 -60 -5 3 -10 -2 -14 -10 -8 -23 -44 -18 -61 9 -32 48 28 105 65 61z m4513
-2 c-2 -7 2 -13 7 -13 6 0 10 -7 10 -15 0 -8 -5 -15 -11 -15 -5 0 -7 -4 -4
-10 3 -5 -6 -16 -21 -22 -22 -10 -28 -10 -32 0 -2 6 -11 12 -19 12 -12 0 -14
7 -9 32 3 18 12 36 19 40 18 12 62 5 60 -9z m-4289 -354 c29 -14 54 -73 35
-85 -5 -3 -7 -10 -4 -15 10 -15 -55 -48 -84 -43 -14 3 -28 9 -29 15 -2 5 -9 6
-14 3 -6 -4 -8 -2 -4 4 3 6 2 13 -4 17 -14 9 -12 56 3 76 14 18 47 38 64 39 7
0 23 -5 37 -11z m4069 -13 c9 -10 17 -22 18 -25 0 -3 2 -15 4 -26 5 -24 -23
-68 -45 -74 -45 -11 -75 -2 -91 27 -21 36 -18 65 7 95 26 30 80 32 107 3z
m-3299 -772 c11 -30 6 -53 -14 -59 -41 -13 -69 43 -32 64 25 15 39 13 46 -5z
m2493 -31 c-2 -13 -7 -23 -11 -22 -5 0 -13 -5 -17 -13 -7 -10 -9 -10 -9 0 0 7
-4 10 -10 7 -5 -3 -11 -3 -11 2 -7 44 -5 55 15 63 28 10 47 -6 43 -37z m-1212
-557 c26 -26 27 -71 2 -100 -24 -27 -87 -47 -87 -27 0 6 -5 10 -11 9 -6 -2
-20 9 -31 24 -59 76 59 163 127 94z"/>
<path d="M1890 5270 c0 -4 -7 -7 -17 -6 -12 1 -16 -7 -16 -31 1 -18 2 -34 3
-35 1 -2 4 -16 6 -33 30 -213 136 -353 308 -405 39 -13 152 -17 163 -7 7 8
-61 77 -77 77 -7 0 -11 2 -8 5 3 3 -12 23 -32 45 -21 22 -55 66 -76 97 -22 32
-43 61 -49 65 -5 4 -6 8 -1 8 4 0 2 10 -6 23 -8 12 -20 37 -26 54 l-11 33 25
-16 c13 -9 24 -20 24 -25 0 -5 5 -9 11 -9 6 0 24 -14 40 -31 16 -17 29 -28 29
-25 0 4 11 -4 24 -18 13 -15 26 -26 30 -26 7 0 34 -24 130 -112 28 -26 54 -48
59 -48 4 0 7 -7 7 -15 0 -15 20 -17 30 -3 7 9 4 92 -3 124 -15 62 -91 174
-118 174 -6 0 -7 5 -4 10 3 6 0 10 -8 10 -8 0 -22 9 -32 20 -10 11 -24 20 -31
20 -7 0 -19 7 -28 15 -8 9 -18 15 -21 15 -3 -1 -31 8 -62 20 -32 12 -84 23
-118 26 -33 3 -79 7 -102 9 -24 2 -43 0 -43 -5z"/>
<path d="M4327 5274 c-1 -1 -24 -4 -52 -5 -72 -4 -234 -58 -243 -81 -2 -4 -10
-8 -18 -8 -8 0 -14 -4 -14 -10 0 -5 -5 -10 -11 -10 -6 0 -28 -18 -48 -39 -51
-56 -58 -65 -65 -89 -4 -12 -12 -22 -18 -22 -6 0 -8 -3 -5 -6 3 -4 1 -16 -5
-28 -6 -11 -13 -41 -15 -66 -2 -25 -6 -55 -8 -67 -5 -32 16 -29 54 6 17 16 31
27 31 24 0 -3 10 5 23 18 13 13 47 44 77 69 29 25 62 53 72 63 10 9 18 15 18
12 0 -2 13 8 28 23 47 45 82 72 82 65 0 -4 7 2 16 13 14 18 15 18 8 -6 -4 -14
-11 -28 -16 -31 -5 -3 -9 -9 -9 -13 2 -13 -50 -106 -60 -106 -5 0 -8 -4 -4
-10 3 -5 -39 -54 -94 -109 -58 -59 -95 -104 -89 -107 20 -12 116 -6 165 10 26
9 53 17 58 18 10 2 22 10 50 36 8 7 15 11 15 7 0 -6 41 36 75 76 11 13 19 27
17 32 -1 4 3 7 8 7 6 0 10 7 10 15 0 8 5 15 10 15 6 0 10 9 10 19 0 11 5 23
10 26 6 4 8 11 5 16 -4 5 -3 15 2 22 11 18 18 53 29 160 4 44 3 57 -8 58 -7 0
-30 2 -51 3 -21 1 -39 1 -40 0z"/>
<path d="M1787 4563 c-4 -3 -33 -8 -65 -9 -49 -2 -100 -9 -162 -20 -8 -2 -31
-6 -50 -9 -52 -10 -60 -20 -48 -62 5 -19 11 -45 14 -56 3 -19 31 -120 39 -145
3 -7 4 -14 5 -17 0 -3 7 -20 17 -38 9 -17 18 -34 18 -37 4 -14 19 -46 24 -50
4 -3 15 -22 26 -43 17 -33 33 -54 75 -104 5 -7 10 -15 10 -19 0 -14 210 -211
210 -197 0 5 5 0 11 -9 5 -10 16 -18 22 -18 7 0 19 -9 27 -19 7 -11 17 -18 22
-15 4 3 8 0 8 -5 0 -6 9 -11 19 -11 11 0 22 -4 26 -9 17 -28 261 -121 318
-121 15 0 27 -3 27 -7 0 -5 60 -7 132 -7 73 1 133 3 133 4 0 1 11 3 25 4 76 7
118 19 116 33 -2 8 -11 20 -22 26 -10 6 -34 26 -51 44 -18 18 -33 31 -33 28 0
-3 -11 4 -24 17 -13 13 -51 49 -85 82 -33 32 -61 62 -61 67 0 5 -7 9 -15 9 -8
0 -15 4 -15 10 0 12 -48 60 -60 60 -6 0 -10 7 -10 16 0 8 -4 12 -10 9 -5 -3
-10 2 -10 11 0 10 -3 15 -6 12 -3 -3 -18 6 -33 20 -42 40 -95 82 -104 82 -5 0
-5 5 -2 10 3 6 -3 10 -14 10 -12 0 -21 5 -21 10 0 6 -4 10 -10 10 -5 0 -19 8
-30 18 -11 9 -23 15 -27 14 -3 -2 -9 0 -12 5 -6 9 -110 70 -123 73 -4 1 -46
20 -92 44 -47 23 -82 37 -79 32 3 -6 0 -5 -8 2 -7 6 -23 12 -36 12 -13 0 -23
4 -23 9 0 5 -6 11 -12 14 -12 4 13 0 70 -10 15 -2 36 -6 47 -7 11 -2 28 -7 37
-10 9 -4 25 -9 35 -11 10 -2 18 -4 18 -5 0 -1 10 -3 21 -5 12 -3 34 -10 50
-16 16 -7 38 -14 49 -16 11 -2 22 -8 23 -13 2 -6 10 -10 17 -10 8 0 40 -13 72
-30 31 -16 61 -30 66 -30 5 0 29 -13 54 -30 24 -16 46 -30 49 -30 15 0 236
-155 297 -208 124 -109 227 -210 227 -223 0 -5 7 -9 15 -9 8 0 15 -5 15 -11 0
-5 4 -8 9 -4 27 16 -10 223 -55 306 -7 14 -11 29 -7 33 3 3 1 6 -6 6 -8 0 -11
6 -7 16 3 8 2 12 -4 9 -5 -3 -12 6 -16 20 -3 14 -10 25 -15 25 -5 0 -9 6 -9
13 0 6 -13 28 -28 47 -34 43 -162 172 -162 163 0 -3 -8 3 -17 14 -21 22 -116
89 -122 84 -2 -1 -7 1 -10 6 -3 5 -32 21 -63 37 -32 15 -60 31 -63 36 -3 5
-12 7 -20 3 -8 -3 -15 0 -15 7 0 6 -4 8 -10 5 -5 -3 -10 -2 -10 2 0 5 -8 9
-17 10 -19 1 -39 7 -63 16 -29 12 -105 30 -132 32 -15 1 -31 4 -34 8 -4 4 -13
2 -21 -4 -8 -7 -13 -7 -13 -2 0 6 -22 10 -50 9 -27 -1 -50 2 -50 7 0 4 -4 6
-10 2 -15 -9 -110 -12 -104 -3 6 10 0 11 -9 1z"/>
<path d="M4427 4564 c-3 -3 -44 -6 -91 -7 -47 -1 -86 -4 -86 -7 0 -4 -10 -6
-22 -7 -85 -2 -337 -94 -386 -141 -8 -7 -17 -10 -21 -8 -4 3 -13 -4 -21 -14
-8 -10 -17 -17 -20 -15 -4 3 -15 -4 -25 -15 -10 -11 -22 -20 -26 -20 -4 0 -25
-17 -47 -37 -22 -21 -50 -47 -63 -59 -63 -55 -169 -209 -181 -264 -2 -8 -6
-17 -10 -21 -12 -8 -49 -162 -43 -176 2 -7 1 -13 -3 -13 -4 0 -7 -25 -8 -56
-1 -44 2 -54 13 -50 8 4 20 6 25 6 6 0 8 3 5 6 -3 4 20 33 52 65 32 33 57 59
55 59 -2 0 7 11 19 23 12 13 24 23 27 23 3 -1 14 8 25 19 12 11 43 38 70 60
27 22 57 48 67 58 10 9 18 14 18 10 0 -3 10 3 23 14 52 48 251 167 272 163 3
0 13 6 21 15 8 8 27 18 42 22 15 3 30 10 33 15 3 5 16 10 27 11 12 1 22 5 22
9 0 4 9 8 20 8 11 0 20 5 20 12 0 6 3 9 6 6 3 -4 37 4 75 17 38 13 69 21 69
18 0 -3 7 0 15 7 8 7 15 10 15 6 0 -3 12 -1 28 5 41 16 62 19 62 8 0 -5 -8
-12 -17 -15 -10 -4 -38 -16 -63 -27 -52 -24 -48 -22 -77 -32 -13 -4 -23 -12
-23 -17 0 -5 -6 -8 -12 -6 -7 3 -21 -4 -32 -14 -11 -10 -26 -18 -33 -18 -7 0
-13 -5 -13 -11 0 -5 -4 -8 -9 -4 -5 3 -13 0 -16 -5 -4 -6 -17 -15 -28 -21 -33
-14 -61 -33 -70 -47 -5 -7 -12 -10 -18 -7 -5 4 -9 1 -9 -4 0 -6 -5 -11 -11
-11 -7 0 -20 -10 -30 -22 -11 -11 -19 -18 -19 -15 0 4 -16 -9 -35 -29 -19 -19
-35 -32 -35 -29 0 3 -69 -63 -152 -147 -84 -84 -170 -166 -190 -183 -90 -72
-94 -76 -72 -88 10 -6 30 -13 44 -14 14 -2 36 -7 50 -11 36 -12 266 -7 328 6
91 20 192 54 192 65 0 6 3 7 6 4 8 -8 128 54 199 102 87 59 200 160 256 228
41 50 131 193 134 213 0 3 9 21 20 40 10 19 18 41 17 48 -2 6 2 12 8 12 6 0 9
4 5 9 -3 5 -1 12 4 16 5 3 8 14 6 25 -2 11 0 20 4 20 4 0 8 6 8 13 0 6 8 43
17 80 9 38 16 72 16 77 0 10 -26 20 -65 27 -32 5 -64 11 -105 19 -14 3 -49 6
-77 7 -29 1 -53 5 -53 9 0 4 -11 3 -25 -2 -14 -5 -25 -6 -25 -2 0 4 -9 8 -20
8 -11 0 -20 -4 -20 -9 0 -5 -6 -4 -13 2 -8 6 -16 8 -20 5z m95 -246 c-7 -7
-12 -8 -12 -2 0 6 3 14 7 17 3 4 9 5 12 2 2 -3 -1 -11 -7 -17z"/>
<path d="M1455 1453 c-58 -17 -69 -25 -106 -76 -24 -34 -28 -46 -25 -99 2 -38
8 -63 17 -69 8 -5 10 -9 5 -9 -11 0 65 -76 78 -78 6 -1 30 -5 54 -10 25 -6 42
-6 42 0 0 5 4 7 10 3 21 -13 101 55 123 105 12 29 17 130 7 130 -4 0 -15 15
-24 34 -9 19 -25 38 -36 41 -11 4 -20 11 -20 16 0 5 -9 9 -21 9 -11 0 -28 4
-37 9 -11 5 -36 3 -67 -6z m84 -127 c19 -20 18 -70 -2 -91 -9 -9 -17 -13 -17
-9 0 5 -5 3 -11 -3 -14 -14 -59 -4 -59 13 0 8 -5 14 -11 14 -18 0 -1 63 22 81
26 19 55 17 78 -5z"/>
<path d="M4818 1464 c-6 -5 -19 -7 -91 -13 -10 0 -15 -5 -12 -11 3 -5 2 -10
-4 -10 -37 0 -94 -105 -84 -155 2 -11 4 -28 5 -38 3 -22 75 -101 103 -112 65
-26 137 -14 179 28 38 39 59 75 51 87 -4 6 -2 10 3 10 17 0 2 112 -16 118 -6
2 -8 10 -5 19 4 11 2 14 -5 9 -7 -4 -12 -3 -12 3 0 13 -50 48 -75 53 -11 1
-23 6 -26 11 -3 4 -8 5 -11 1z m31 -138 c16 -14 19 -27 15 -50 -6 -35 -22 -58
-35 -50 -5 3 -9 1 -9 -5 0 -13 -37 -6 -57 11 -22 18 -32 51 -21 66 6 6 7 12 3
12 -4 0 3 8 15 18 29 23 62 22 89 -2z"/>
<path d="M2800 1333 c-115 -35 -155 -112 -125 -243 7 -31 8 -96 6 -299 -1 -44
-4 -52 -17 -47 -8 3 -13 2 -10 -3 3 -4 -5 -14 -18 -20 -25 -14 -60 -76 -51
-91 3 -5 1 -11 -5 -15 -6 -4 -7 -12 -3 -18 4 -7 9 -21 10 -32 5 -29 34 -66 74
-93 35 -24 110 -29 137 -9 6 5 12 6 12 3 0 -14 53 50 65 79 27 64 9 125 -53
183 l-36 33 0 120 c-1 67 1 122 4 124 3 2 23 4 45 6 41 3 89 22 111 44 23 23
41 81 39 124 -3 47 -33 111 -52 111 -7 0 -13 4 -13 9 0 18 -90 43 -120 34z
m60 -132 c9 -9 15 -23 15 -31 -1 -8 -3 -23 -3 -32 -1 -10 -9 -18 -17 -18 -8 0
-15 -6 -15 -12 0 -9 -4 -8 -10 2 -6 10 -10 11 -10 3 0 -9 -6 -7 -18 5 -11 9
-17 20 -15 25 2 4 0 7 -5 7 -16 0 -9 34 11 51 25 20 47 20 67 0z m-92 -563
c19 -19 14 -56 -10 -73 -14 -9 -24 -11 -26 -5 -2 5 -10 10 -18 10 -8 0 -14 3
-15 8 0 4 -2 15 -4 25 -7 36 46 62 73 35z"/>
<path d="M3429 1330 c-7 -5 -16 -7 -19 -5 -12 8 -80 -62 -95 -98 -8 -20 -12
-37 -9 -37 4 0 0 -8 -7 -17 -10 -11 -10 -14 -1 -9 8 5 12 0 12 -17 0 -63 90
-136 170 -138 25 0 41 -2 35 -5 -11 -4 -12 -162 -2 -188 4 -9 2 -18 -2 -21 -5
-3 -7 -14 -4 -25 3 -11 1 -20 -5 -20 -16 0 -72 -60 -84 -89 -21 -52 -5 -132
30 -154 7 -5 9 -13 6 -19 -4 -7 -2 -8 4 -4 7 4 12 3 12 -2 0 -23 108 -36 150
-19 34 15 79 66 89 102 10 38 4 97 -12 107 -7 4 -9 8 -5 8 11 0 -34 50 -45 50
-16 0 -39 30 -33 45 3 8 1 15 -5 15 -6 0 -7 6 -2 12 8 14 6 125 -2 138 -3 5 1
11 7 14 11 5 11 7 0 12 -6 3 -9 10 -6 16 4 5 7 31 8 57 2 25 6 68 11 94 8 48
-8 127 -27 127 -4 0 -8 6 -8 13 0 10 -33 38 -50 43 -3 0 -12 4 -20 7 -28 11
-77 15 -91 7z m87 -138 c16 -32 -8 -82 -39 -82 -25 1 -51 19 -55 39 -5 24 8
62 18 56 6 -3 10 -1 10 5 0 21 54 6 66 -18z m79 -552 c-3 -5 -2 -10 3 -10 5 0
8 -10 7 -22 -1 -13 -3 -28 -4 -35 0 -7 -8 -10 -16 -7 -8 4 -15 1 -15 -5 0 -13
-10 -14 -29 -2 -17 11 -22 73 -7 83 17 12 68 10 61 -2z"/>
</g>
</svg>
